HIERARCHY
ROOT Hips
{
	OFFSET 0.0000 0.0000 0.0000
	CHANNELS 6 Xposition Yposition Zposition Zrotation Xrotation Yrotation
	JOINT Ab
	{
		OFFSET -0.0000 8.1305 -0.0000
		CHANNELS 3 Zrotation Xrotation Yrotation
		JOINT Chest
		{
			OFFSET -0.0000 26.2902 -0.0000
			CHANNELS 3 Zrotation Xrotation Yrotation
			JOINT Neck
			{
				OFFSET -0.0000 26.2902 0.0000
				CHANNELS 3 Zrotation Xrotation Yrotation
				JOINT Head
				{
					OFFSET -0.0000 10.8167 0.0000
					CHANNELS 3 Zrotation Xrotation Yrotation
					End Site
					{
						OFFSET -0.0000 16.7167 0.0000
					}
				}
			}
			JOINT LeftCollar
			{
				OFFSET -0.0000 26.2902 0.0000
				CHANNELS 3 Zrotation Xrotation Yrotation
				JOINT LeftShoulder
				{
					OFFSET 19.6667 -0.0000 0.0000
					CHANNELS 3 Zrotation Xrotation Yrotation
					JOINT LeftElbow
					{
						OFFSET 27.2190 0.0000 0.0000
						CHANNELS 3 Zrotation Xrotation Yrotation
						JOINT LeftWrist
						{
							OFFSET 30.7431 0.0000 0.0000
							CHANNELS 3 Zrotation Xrotation Yrotation
							End Site
							{
								OFFSET 0.0000 -14.7500 0.0000
							}
						}
					}
				}
			}
			JOINT RightCollar
			{
				OFFSET -0.0000 26.2902 0.0000
				CHANNELS 3 Zrotation Xrotation Yrotation
				JOINT RightShoulder
				{
					OFFSET -19.6667 0.0000 0.0000
					CHANNELS 3 Zrotation Xrotation Yrotation
					JOINT RightElbow
					{
						OFFSET -27.2190 0.0000 0.0000
						CHANNELS 3 Zrotation Xrotation Yrotation
						JOINT RightWrist
						{
							OFFSET -30.7431 0.0000 0.0000
							CHANNELS 3 Zrotation Xrotation Yrotation
							End Site
							{
								OFFSET -0.0000 -14.7500 0.0000
							}
						}
					}
				}
			}
		}
	}
	JOINT LeftHip
	{
		OFFSET 11.8000 0.0000 0.0000
		CHANNELS 3 Zrotation Xrotation Yrotation
		JOINT LeftKnee
		{
			OFFSET -0.0000 -39.7832 0.0000
			CHANNELS 3 Zrotation Xrotation Yrotation
			JOINT LeftAnkle
			{
				OFFSET -0.0000 -41.7317 0.0000
				CHANNELS 3 Zrotation Xrotation Yrotation
				End Site
				{
					OFFSET -0.0000 -4.9167 16.7167
				}
			}
		}
	}
	JOINT RightHip
	{
		OFFSET -11.8000 0.0000 0.0000
		CHANNELS 3 Zrotation Xrotation Yrotation
		JOINT RightKnee
		{
			OFFSET -0.0000 -39.7832 0.0000
			CHANNELS 3 Zrotation Xrotation Yrotation
			JOINT RightAnkle
			{
				OFFSET -0.0000 -41.7317 0.0000
				CHANNELS 3 Zrotation Xrotation Yrotation
				End Site
				{
					OFFSET -0.0000 -4.9167 16.7167
				}
			}
		}
	}
}
MOTION
Frames: 21
Frame Time: 0.010000
-6.7375 92.5986 97.1980 355.2727 348.2252 197.8300 0.6554 349.6135 0.7884 3.6999 14.4723 0.2561 350.8692 351.0424 351.1995 7.8375 12.9774 351.0246 340.6110 357.6287 13.7671 326.8595 62.7541 330.1981 12.7884 355.2813 319.5789 88.8255 354.4146 350.7999 25.9347 356.2985 344.0469 36.0265 48.0399 14.2440 335.7823 351.7955 37.4480 268.2356 354.9126 3.0699 350.0870 350.2606 358.4792 357.1733 9.1423 4.5860 354.7524 351.9276 13.7661 349.8104 347.6637 0.8219 13.4281 23.0330 17.0678 347.8397 337.6391 311.1717 
-6.8082 92.5282 96.9313 355.4604 348.4866 197.7745 0.6596 349.5380 0.6843 3.6975 14.5741 0.1421 350.9752 351.0947 351.2137 7.9154 12.9629 351.0176 340.5657 357.6211 13.7617 326.7707 62.5967 330.4777 12.6126 355.3844 319.8581 88.6454 354.3569 350.3898 25.9761 356.2904 344.0752 36.4213 47.6560 13.8219 336.0852 351.8367 37.7478 268.2798 354.7136 3.7297 350.4116 350.5756 358.5366 357.0614 9.1762 4.5534 355.2300 352.0346 13.8768 350.1355 347.9114 0.9388 13.3998 23.2553 17.1245 347.7444 337.5610 311.0795 
-6.8925 92.4696 96.6960 355.5767 348.6980 197.6501 0.6093 349.4955 0.6030 3.6830 14.6178 0.0702 351.0320 351.1973 351.2905 8.0051 12.8595 351.0824 340.4712 357.6229 13.8455 326.8192 62.4418 330.5724 12.4414 355.4848 320.1332 88.9323 354.4106 350.2761 26.0834 356.2792 344.0923 36.4875 47.5601 13.6334 336.3246 351.8833 37.8175 268.3175 354.5469 4.0659 350.6359 350.8682 358.6479 356.9570 9.1630 4.4553 355.5498 352.1164 14.1270 350.3613 348.0500 1.0599 13.3848 23.5705 17.2354 347.6334 337.5249 310.9522 
-7.0033 92.4235 96.4635 355.6046 348.8889 197.4673 0.5356 349.4456 0.5508 3.5737 14.6982 0.0365 350.9640 351.1017 351.2165 8.0894 13.0466 350.9911 340.3376 357.5730 13.9679 327.1328 62.1495 330.3953 12.1864 355.6353 320.5403 88.5103 354.1359 349.8381 26.1525 356.2952 344.1881 36.8747 47.3743 13.1644 336.4046 351.8367 38.0079 268.4696 354.4997 4.3514 350.7288 351.2008 358.7564 356.9065 9.1019 4.3813 356.1893 352.3371 14.3248 350.4733 348.1768 1.1581 13.3795 23.9199 17.3704 347.5311 337.4720 310.8505 
-7.1410 92.3957 96.2486 355.5841 349.0457 197.3001 0.4327 349.4031 0.4867 3.4553 14.7602 359.9956 350.9782 351.1308 351.2564 8.2044 13.0373 351.0210 340.2545 357.5331 14.0230 327.1145 62.0008 330.5176 12.0922 355.6700 320.7861 88.8234 354.2841 350.1202 26.3509 356.2318 344.0234 36.7717 46.8172 13.0355 336.8115 351.9392 38.5363 268.6201 354.6521 4.8644 350.7023 351.5147 358.8334 356.9140 9.0487 4.3451 356.4542 352.3717 14.5332 350.4857 348.2743 1.2190 13.4081 24.2865 17.4501 347.4637 337.3654 310.7806 
-7.2640 92.3711 96.0427 355.5626 349.1989 197.1298 0.3111 349.3788 0.4360 3.3241 14.8156 359.9717 351.0163 351.1607 351.3155 8.3036 13.0418 351.0636 340.1717 357.5387 14.0709 327.1048 61.7331 330.6703 11.8920 355.7896 321.0057 89.0970 354.3154 349.9250 26.4632 356.2303 344.1218 37.1727 46.5798 12.3876 336.9397 351.8637 38.8955 268.6857 354.6572 5.0858 350.6886 351.8310 358.9489 356.9028 8.9712 4.4262 356.5922 352.4148 14.6887 350.5203 348.3530 1.2831 13.3914 24.6577 17.5608 347.4599 337.2303 310.7281 
-7.4001 92.3540 95.8192 355.5254 349.3877 196.9544 0.1938 349.3637 0.3918 3.2029 14.8975 359.9505 351.0162 351.2120 351.3748 8.3979 13.0377 351.1086 340.1016 357.5340 14.1115 327.1353 61.5343 330.7007 11.8374 355.8287 321.3316 88.8774 354.1267 349.7860 26.4939 356.2192 343.9687 37.1658 46.6884 12.5370 337.0041 351.8531 38.7199 268.7460 354.5376 5.3139 350.6616 352.2321 359.0940 356.9145 8.8392 4.5205 356.8570 352.4990 14.7146 350.5407 348.5173 1.3525 13.3725 24.9632 17.6534 347.4535 337.0869 310.6968 
-7.5315 92.3420 95.6229 355.5089 349.5266 196.8077 0.0736 349.3513 0.3550 3.0824 14.9205 359.9390 351.0332 351.2884 351.4240 8.4708 13.0126 351.1430 340.0723 357.5081 14.1157 327.0162 61.3628 330.8656 11.8459 355.8529 321.6042 88.8906 354.1846 349.7326 26.5339 356.1787 343.8324 37.2288 46.7621 12.5433 337.0178 351.8605 38.6024 268.8084 354.5065 5.1695 350.6392 352.5542 359.2596 356.9299 8.7240 4.6329 357.0095 352.5675 14.6673 350.5575 348.5914 1.3888 13.3524 25.3201 17.7432 347.4615 336.9301 310.6491 
-7.6685 92.3290 95.4313 355.4971 349.6548 196.6739 359.9392 349.3525 0.3325 2.9965 14.9005 359.9446 351.0285 351.3843 351.4647 8.5089 12.9949 351.1735 340.0188 357.5098 14.1008 326.9655 61.2518 330.9898 11.8070 355.8742 321.7185 89.9629 354.4951 350.4039 26.4941 356.1520 343.7009 37.5477 46.8408 12.3683 336.9434 351.8472 38.4773 268.8845 354.5156 5.0756 350.6281 352.8770 359.4036 356.9207 8.5943 4.8080 357.1568 352.6135 14.5521 350.5742 348.6561 1.3885 13.3050 25.6816 17.8188 347.5133 336.7372 310.6452 
-7.7996 92.3141 95.2324 355.5045 349.8276 196.5605 359.8420 349.4104 0.3036 2.8778 14.8514 359.9293 351.1105 351.4713 351.5066 8.4342 13.0267 351.2076 340.0003 357.4878 14.0906 326.9102 61.1409 331.1002 11.8511 355.8745 321.8917 90.1597 354.6973 350.8628 26.4846 356.1219 343.5877 37.9000 46.8926 12.0894 336.8898 351.8579 38.4150 268.9030 354.5031 5.0335 350.6783 353.2541 359.6011 356.8821 8.4465 4.8780 357.3455 352.6597 14.4439 350.6315 348.7851 1.4670 13.2654 25.9998 17.8463 347.5740 336.5751 310.6417 
-7.9241 92.2992 95.0283 355.5852 349.9646 196.5396 359.7739 349.3864 0.2091 2.7786 14.8229 359.9086 351.2506 351.5678 351.5443 8.3046 13.0723 351.2385 340.0013 357.5162 14.0428 326.8590 61.0342 331.2189 11.8210 355.9344 322.1271 89.8896 354.5872 350.4169 26.3514 356.1135 343.3301 38.3310 47.1596 11.9895 336.7013 351.7839 38.2234 268.9491 354.4768 4.7980 350.8133 353.5587 359.7661 356.8030 8.3485 4.9082 357.4551 352.6433 14.3114 350.7430 348.8930 1.4640 13.2112 26.3070 17.9108 347.5795 336.4468 310.5843 
-8.0568 92.2818 94.8415 355.6149 350.0889 196.4449 359.6842 349.4171 0.1952 2.6841 14.7474 359.8837 351.1667 351.6655 351.6142 8.3585 13.1254 351.2995 339.9635 357.5056 14.1146 326.8992 60.9333 331.2185 11.8443 355.9524 322.2681 89.9324 354.7552 350.6169 26.3298 356.0914 343.3361 38.7634 47.1736 11.5410 336.6642 351.8082 38.2098 269.0243 354.3222 4.6030 350.9036 353.8557 359.9601 356.7167 8.2486 5.0333 357.6294 352.6107 14.0750 350.8073 348.9106 1.5215 13.1737 26.7227 17.9609 347.6091 336.2546 310.5037 
-8.1916 92.2596 94.6619 355.6317 350.1979 196.3523 359.5771 349.4510 0.1543 2.5797 14.6503 359.8937 351.1580 351.8090 351.6496 8.3523 13.1385 351.3227 339.9732 357.4818 14.1017 326.8393 60.8928 331.3292 11.9070 355.9438 322.3798 89.6514 354.7139 350.4053 26.3678 356.0759 343.3514 39.1457 47.1487 11.0483 336.6872 351.8241 38.2305 268.9815 354.3646 4.5418 350.9865 354.1406 0.1383 356.6061 8.1608 5.0224 357.5763 352.5500 13.9913 350.8305 348.8869 1.4893 13.1303 27.2120 18.1740 347.6073 336.1029 310.3563 
-8.3274 92.2281 94.4808 355.6462 350.3225 196.2497 359.4696 349.4916 0.1269 2.4808 14.5905 359.8890 351.1220 351.8725 351.6999 8.3732 13.2144 351.3628 339.9706 357.4839 14.1404 326.8715 60.7987 331.3303 11.8650 355.9610 322.4063 89.6502 354.6969 350.4527 26.3309 356.0750 343.3168 39.5439 47.2021 10.7181 336.6471 351.8111 38.1774 269.0717 354.3073 4.6045 351.0776 354.4584 0.3305 356.4815 8.0453 4.9976 357.6111 352.5232 13.9263 350.8539 348.8472 1.6244 13.1941 27.7262 18.1696 347.5644 335.9700 310.2085 
-8.4622 92.1910 94.3078 355.6477 350.4241 196.1447 359.3587 349.5120 0.0919 2.3539 14.5479 359.8694 351.0951 351.9611 351.7546 8.3974 13.2405 351.4081 339.9863 357.4688 14.1949 326.9260 60.7101 331.3007 11.9177 355.9420 322.4283 89.4140 354.6319 350.4212 26.2945 356.0610 343.2575 39.8699 47.2964 10.4663 336.6388 351.8305 38.1323 269.0891 354.2141 4.6739 351.1424 354.7540 0.5459 356.3714 7.9316 4.9515 357.7935 352.5062 13.8384 350.8548 348.7443 1.7523 13.2789 28.3241 18.1127 347.5437 335.7874 310.1054 
-8.5974 92.1445 94.1410 355.6447 350.5183 196.0369 359.2471 349.4978 0.0406 2.2320 14.5652 359.8202 351.0712 352.0559 351.8423 8.3989 13.2343 351.4917 339.9832 357.4815 14.2496 326.9744 60.5332 331.3162 11.8555 355.9608 322.3165 89.4312 354.7492 350.2523 26.3041 356.0756 343.3366 40.2276 47.2721 10.1032 336.6897 351.8416 38.1511 269.1295 354.2365 4.6455 351.1917 355.0495 0.7085 356.2638 7.8043 4.8774 357.8816 352.4511 13.8159 350.8474 348.5775 1.8000 13.3310 29.0327 18.1052 347.5628 335.6042 310.0411 
-8.7314 92.0923 93.9788 355.6261 350.6134 195.9239 359.1313 349.5503 0.0109 2.0977 14.5064 359.8211 351.1365 352.0595 351.9841 8.2977 13.2096 351.6439 339.9833 357.4574 14.3346 327.0866 60.4477 331.2470 11.9100 355.8956 322.1809 89.4062 354.8956 350.5141 26.3455 356.0642 343.3431 40.4496 47.2740 9.8373 336.7115 351.8279 38.1908 269.0573 354.2841 4.5475 351.2206 355.3420 0.8535 356.1520 7.6933 4.7382 358.1293 352.4121 13.8440 350.7964 348.3835 1.9073 13.4761 29.7621 18.0596 347.5314 335.5321 309.9872 
-8.8700 92.0291 93.8105 355.5606 350.7655 195.7763 358.9657 349.6048 359.9674 1.9975 14.5673 359.8086 351.0635 352.1629 352.0719 8.3422 13.1384 351.7275 339.9659 357.4534 14.2741 326.7396 60.1153 331.7496 11.8636 355.8948 321.8983 89.3019 354.9029 350.3861 26.3767 356.0847 343.4003 40.6053 47.3534 9.6448 336.7035 351.8450 38.1845 269.1190 354.4011 4.4642 351.2136 355.7379 0.9297 356.0278 7.5160 4.7194 358.2756 352.3632 13.8945 350.7125 348.2019 2.0482 13.6542 30.5949 18.0259 347.6094 335.3706 309.8703 
-8.9965 91.9541 93.6524 355.5021 350.9037 195.5911 358.8108 349.6598 359.9423 1.8904 14.6478 359.8126 350.9692 352.1825 352.1637 8.3882 13.1169 351.8205 339.9563 357.4774 14.2007 326.3342 59.7281 332.3058 11.8676 355.8524 321.5537 89.1174 354.8899 349.9677 26.4187 356.1105 343.5571 40.9078 47.2914 9.3191 336.7212 351.8460 38.2231 269.1542 354.2981 4.5085 351.2084 356.1071 1.0412 355.9146 7.3401 4.7380 358.3750 352.2900 13.9299 350.6316 347.9388 2.2659 13.8882 31.4853 17.9156 347.6803 335.2463 309.7904 
-9.1304 91.8796 93.5050 355.4578 351.0145 195.4412 358.6842 349.6911 359.9032 1.7704 14.7281 359.7924 350.8914 352.2564 352.2555 8.4290 13.0136 351.9150 339.8990 357.4581 14.2766 326.5464 59.5153 332.1784 11.9140 355.8131 321.3753 89.0797 354.9695 349.9859 26.5062 356.1275 343.7253 41.1388 47.2244 9.0182 336.7312 351.8401 38.2582 269.3039 354.1626 4.4975 351.1905 356.4489 1.0558 355.8064 7.1436 4.8128 358.5450 352.2549 13.9524 350.5309 347.6195 2.3647 14.1472 32.4375 17.7483 347.8032 335.1151 309.7780 
-9.2592 91.8000 93.3581 355.4228 351.1062 195.2800 358.5436 349.7060 359.8875 1.6872 14.8107 359.8082 350.7630 352.3133 352.3451 8.4829 12.9298 352.0088 339.8065 357.4308 14.3506 326.8180 59.3323 331.9995 11.9012 355.8018 321.2151 89.1750 354.9310 350.0746 26.5458 356.1509 343.8249 41.3264 47.1902 8.8238 336.7720 351.8418 38.3018 269.1013 354.3890 4.6833 351.1802 356.7653 1.0785 355.6924 6.9616 4.8795 358.6540 352.1648 14.0211 350.4450 347.2549 2.4452 14.4009 33.4096 17.4734 348.1061 334.8540 309.8874 
